<?xml version="1.0" encoding="UTF-8" standalone="no"?>
<!DOCTYPE svg PUBLIC "-//W3C//DTD SVG 1.1//EN" "http://www.w3.org/Graphics/SVG/1.1/DTD/svg11.dtd">
<svg xmlns:xl="http://www.w3.org/1999/xlink" xmlns="http://www.w3.org/2000/svg" xmlns:dc="http://purl.org/dc/elements/1.1/" version="1.1" viewBox="214 105 924 484" width="924" height="484">
  <defs>
    <marker orient="auto" overflow="visible" markerUnits="strokeWidth" id="FilledArrow_Marker" stroke-linejoin="miter" stroke-miterlimit="10" viewBox="-1 -3 6 6" markerWidth="6" markerHeight="6" color="#3a6092">
      <g>
        <path d="M 3.2 0 L 0 -1.2 L 0 1.2 Z" fill="currentColor" stroke="currentColor" stroke-width="1"/>
      </g>
    </marker>
  </defs>
  <g id="Desarrollo" stroke-dasharray="none" stroke-opacity="1" fill-opacity="1" fill="none" stroke="none">
    <title>Desarrollo</title>
    <g id="Desarrollo_Capa_1">
      <title>Capa 1</title>
      <g id="Line_16">
        <line x1="556" y1="169" x2="556" y2="296.1" marker-end="url(#FilledArrow_Marker)" stroke="#3a6092" stroke-linecap="square" stroke-linejoin="miter" stroke-width="4"/>
      </g>
      <g id="Line_15">
        <path d="M 556 169 L 556 242 L 316 242 L 316 296.1" marker-end="url(#FilledArrow_Marker)" stroke="#3a6092" stroke-linecap="square" stroke-linejoin="miter" stroke-width="4"/>
      </g>
      <g id="Graphic_14">
        <title>decision</title>
        <path d="M 466 107 L 646 107 C 651.52285 107 656 111.47715 656 117 L 656 157 C 656 162.52285 651.52285 167 646 167 L 466 167 C 460.47715 167 456 162.52285 456 157 L 456 117 C 456 111.47715 460.47715 107 466 107 Z" fill="#f1776c"/>
        <path d="M 466 107 L 646 107 C 651.52285 107 656 111.47715 656 117 L 656 157 C 656 162.52285 651.52285 167 646 167 L 466 167 C 460.47715 167 456 162.52285 456 157 L 456 117 C 456 111.47715 460.47715 107 466 107 Z" stroke="white" stroke-linecap="round" stroke-linejoin="round" stroke-width="4"/>
        <text transform="translate(466 128)" fill="white">
          <tspan font-family="American Typewriter" font-size="15" fill="white" x="52.365" y="14">Desarrollo</tspan>
        </text>
      </g>
      <g id="Graphic_13">
        <title>decision</title>
        <path d="M 226 317 L 406 317 C 411.52285 317 416 321.47715 416 327 L 416 367 C 416 372.52285 411.52285 377 406 377 L 226 377 C 220.47715 377 216 372.52285 216 367 L 216 327 C 216 321.47715 220.47715 317 226 317 Z" fill="#ff914d"/>
        <path d="M 226 317 L 406 317 C 411.52285 317 416 321.47715 416 327 L 416 367 C 416 372.52285 411.52285 377 406 377 L 226 377 C 220.47715 377 216 372.52285 216 367 L 216 327 C 216 321.47715 220.47715 317 226 317 Z" stroke="white" stroke-linecap="round" stroke-linejoin="round" stroke-width="4"/>
        <text transform="translate(226 338)" fill="white">
          <tspan font-family="American Typewriter" font-size="15" fill="white" x="56.01" y="14">Back End</tspan>
        </text>
      </g>
      <g id="Graphic_12">
        <title>decision</title>
        <path d="M 466 317 L 646 317 C 651.52285 317 656 321.47715 656 327 L 656 367 C 656 372.52285 651.52285 377 646 377 L 466 377 C 460.47715 377 456 372.52285 456 367 L 456 327 C 456 321.47715 460.47715 317 466 317 Z" fill="#ff914d"/>
        <path d="M 466 317 L 646 317 C 651.52285 317 656 321.47715 656 327 L 656 367 C 656 372.52285 651.52285 377 646 377 L 466 377 C 460.47715 377 456 372.52285 456 367 L 456 327 C 456 321.47715 460.47715 317 466 317 Z" stroke="white" stroke-linecap="round" stroke-linejoin="round" stroke-width="4"/>
        <text transform="translate(466 338)" fill="white">
          <tspan font-family="American Typewriter" font-size="15" fill="white" x="53.895" y="14">Full Stack</tspan>
        </text>
      </g>
      <g id="Graphic_11">
        <title>decision</title>
        <path d="M 706 317 L 886 317 C 891.5228 317 896 321.47715 896 327 L 896 367 C 896 372.52285 891.5228 377 886 377 L 706 377 C 700.47715 377 696 372.52285 696 367 L 696 327 C 696 321.47715 700.47715 317 706 317 Z" fill="#ff914d"/>
        <path d="M 706 317 L 886 317 C 891.5228 317 896 321.47715 896 327 L 896 367 C 896 372.52285 891.5228 377 886 377 L 706 377 C 700.47715 377 696 372.52285 696 367 L 696 327 C 696 321.47715 700.47715 317 706 317 Z" stroke="white" stroke-linecap="round" stroke-linejoin="round" stroke-width="4"/>
        <text transform="translate(706 338)" fill="white">
          <tspan font-family="American Typewriter" font-size="15" fill="white" x="53.505" y="14">Front End</tspan>
        </text>
      </g>
      <g id="Line_10">
        <path d="M 556 169 L 556 242 L 796 242 L 796 296.1" marker-end="url(#FilledArrow_Marker)" stroke="#3a6092" stroke-linecap="square" stroke-linejoin="miter" stroke-width="4"/>
      </g>
      <g id="Graphic_9">
        <title>decision</title>
        <path d="M 466 527 L 646 527 C 651.52285 527 656 531.47715 656 537 L 656 577 C 656 582.52285 651.52285 587 646 587 L 466 587 C 460.47715 587 456 582.52285 456 577 L 456 537 C 456 531.47715 460.47715 527 466 527 Z" fill="#f26077"/>
        <path d="M 466 527 L 646 527 C 651.52285 527 656 531.47715 656 537 L 656 577 C 656 582.52285 651.52285 587 646 587 L 466 587 C 460.47715 587 456 582.52285 456 577 L 456 537 C 456 531.47715 460.47715 527 466 527 Z" stroke="white" stroke-linecap="round" stroke-linejoin="round" stroke-width="4"/>
        <text transform="translate(466 539)" fill="white">
          <tspan font-family="American Typewriter" font-size="15" fill="white" x="8.0175" y="14">José Antonio Martínez </tspan>
          <tspan font-family="American Typewriter" font-size="15" fill="white" x="56.4225" y="32">Castañón</tspan>
        </text>
      </g>
      <g id="Line_8">
        <line x1="556" y1="379" x2="556" y2="506.1" marker-end="url(#FilledArrow_Marker)" stroke="#3a6092" stroke-linecap="square" stroke-linejoin="miter" stroke-width="4"/>
      </g>
      <g id="Graphic_7">
        <title>decision</title>
        <path d="M 226 527 L 406 527 C 411.52285 527 416 531.47715 416 537 L 416 577 C 416 582.52285 411.52285 587 406 587 L 226 587 C 220.47715 587 216 582.52285 216 577 L 216 537 C 216 531.47715 220.47715 527 226 527 Z" fill="#00bfc0"/>
        <path d="M 226 527 L 406 527 C 411.52285 527 416 531.47715 416 537 L 416 577 C 416 582.52285 411.52285 587 406 587 L 226 587 C 220.47715 587 216 582.52285 216 577 L 216 537 C 216 531.47715 220.47715 527 226 527 Z" stroke="white" stroke-linecap="round" stroke-linejoin="round" stroke-width="4"/>
        <text transform="translate(226 539)" fill="white">
          <tspan font-family="American Typewriter" font-size="15" fill="white" x="1.4925" y="14">José Francisco Martínez </tspan>
          <tspan font-family="American Typewriter" font-size="15" fill="white" x="68.8425" y="32">Merlo</tspan>
        </text>
      </g>
      <g id="Line_6">
        <line x1="316" y1="379" x2="316" y2="506.1" marker-end="url(#FilledArrow_Marker)" stroke="#3a6092" stroke-linecap="square" stroke-linejoin="miter" stroke-width="4"/>
      </g>
      <g id="Graphic_5">
        <title>decision</title>
        <path d="M 706 527 L 886 527 C 891.5228 527 896 531.47715 896 537 L 896 577 C 896 582.52285 891.5228 587 886 587 L 706 587 C 700.47715 587 696 582.52285 696 577 L 696 537 C 696 531.47715 700.47715 527 706 527 Z" fill="#9662d0"/>
        <path d="M 706 527 L 886 527 C 891.5228 527 896 531.47715 896 537 L 896 577 C 896 582.52285 891.5228 587 886 587 L 706 587 C 700.47715 587 696 582.52285 696 577 L 696 537 C 696 531.47715 700.47715 527 706 527 Z" stroke="white" stroke-linecap="round" stroke-linejoin="round" stroke-width="4"/>
        <text transform="translate(706 539)" fill="white">
          <tspan font-family="American Typewriter" font-size="15" fill="white" x="7.0875" y="14">Leonardo Galdino Melo </tspan>
          <tspan font-family="American Typewriter" font-size="15" fill="white" x="72.78" y="32">Cruz</tspan>
        </text>
      </g>
      <g id="Line_4">
        <line x1="796" y1="379" x2="796" y2="506.1" marker-end="url(#FilledArrow_Marker)" stroke="#3a6092" stroke-linecap="square" stroke-linejoin="miter" stroke-width="4"/>
      </g>
      <g id="Graphic_3">
        <title>decision</title>
        <path d="M 946 527 L 1126 527 C 1131.5228 527 1136 531.47715 1136 537 L 1136 577 C 1136 582.52285 1131.5228 587 1126 587 L 946 587 C 940.4772 587 936 582.52285 936 577 L 936 537 C 936 531.47715 940.4772 527 946 527 Z" fill="#3a8eed"/>
        <path d="M 946 527 L 1126 527 C 1131.5228 527 1136 531.47715 1136 537 L 1136 577 C 1136 582.52285 1131.5228 587 1126 587 L 946 587 C 940.4772 587 936 582.52285 936 577 L 936 537 C 936 531.47715 940.4772 527 946 527 Z" stroke="white" stroke-linecap="round" stroke-linejoin="round" stroke-width="4"/>
        <text transform="translate(946 548)" fill="white">
          <tspan font-family="American Typewriter" font-size="15" fill="white" x="3.7425" y="14">Cassiel Martínez Ugalde</tspan>
        </text>
      </g>
      <g id="Line_2">
        <path d="M 796 379 L 796 452 L 1036 452 L 1036 506.1" marker-end="url(#FilledArrow_Marker)" stroke="#3a6092" stroke-linecap="square" stroke-linejoin="miter" stroke-width="4"/>
      </g>
    </g>
  </g>
</svg>
