<?xml version="1.0" encoding="UTF-8" standalone="no"?>
<!DOCTYPE svg PUBLIC "-//W3C//DTD SVG 1.1//EN" "http://www.w3.org/Graphics/SVG/1.1/DTD/svg11.dtd">
<svg xmlns:xl="http://www.w3.org/1999/xlink" xmlns="http://www.w3.org/2000/svg" xmlns:dc="http://purl.org/dc/elements/1.1/" version="1.1" viewBox="91 120 924 484" width="924" height="484">
  <defs>
    <marker orient="auto" overflow="visible" markerUnits="strokeWidth" id="FilledArrow_Marker" stroke-linejoin="miter" stroke-miterlimit="10" viewBox="-1 -3 6 6" markerWidth="6" markerHeight="6" color="#3a6092">
      <g>
        <path d="M 3.2 0 L 0 -1.2 L 0 1.2 Z" fill="currentColor" stroke="currentColor" stroke-width="1"/>
      </g>
    </marker>
  </defs>
  <g id="Investigacion" stroke-dasharray="none" stroke-opacity="1" fill-opacity="1" fill="none" stroke="none">
    <title>Investigacion</title>
    <g id="Investigacion_Capa_1">
      <title>Capa 1</title>
      <g id="Graphic_12">
        <title>decision</title>
        <path d="M 583 122 L 763 122 C 768.52285 122 773 126.47715 773 132 L 773 172 C 773 177.52285 768.52285 182 763 182 L 583 182 C 577.47715 182 573 177.52285 573 172 L 573 132 C 573 126.47715 577.47715 122 583 122 Z" fill="#f1776c"/>
        <path d="M 583 122 L 763 122 C 768.52285 122 773 126.47715 773 132 L 773 172 C 773 177.52285 768.52285 182 763 182 L 583 182 C 577.47715 182 573 177.52285 573 172 L 573 132 C 573 126.47715 577.47715 122 583 122 Z" stroke="white" stroke-linecap="round" stroke-linejoin="round" stroke-width="4"/>
        <text transform="translate(583 143)" fill="white">
          <tspan font-family="American Typewriter" font-size="15" fill="white" x="41.7225" y="14">Investigación</tspan>
        </text>
      </g>
      <g id="Graphic_11">
        <title>decision</title>
        <path d="M 103 332 L 283 332 C 288.52285 332 293 336.47715 293 342 L 293 382 C 293 387.52285 288.52285 392 283 392 L 103 392 C 97.47715 392 93 387.52285 93 382 L 93 342 C 93 336.47715 97.47715 332 103 332 Z" fill="#ff914d"/>
        <path d="M 103 332 L 283 332 C 288.52285 332 293 336.47715 293 342 L 293 382 C 293 387.52285 288.52285 392 283 392 L 103 392 C 97.47715 392 93 387.52285 93 382 L 93 342 C 93 336.47715 97.47715 332 103 332 Z" stroke="white" stroke-linecap="round" stroke-linejoin="round" stroke-width="4"/>
        <text transform="translate(103 353)" fill="white">
          <tspan font-family="American Typewriter" font-size="15" fill="white" x="55.29" y="14">De campo</tspan>
        </text>
      </g>
      <g id="Line_10">
        <path d="M 673 184 L 673 257 L 193 257 L 193 311.1" marker-end="url(#FilledArrow_Marker)" stroke="#3a6092" stroke-linecap="square" stroke-linejoin="miter" stroke-width="4"/>
      </g>
      <g id="Graphic_9">
        <title>decision</title>
        <path d="M 103 542 L 283 542 C 288.52285 542 293 546.47715 293 552 L 293 592 C 293 597.52285 288.52285 602 283 602 L 103 602 C 97.47715 602 93 597.52285 93 592 L 93 552 C 93 546.47715 97.47715 542 103 542 Z" fill="#3a8eed"/>
        <path d="M 103 542 L 283 542 C 288.52285 542 293 546.47715 293 552 L 293 592 C 293 597.52285 288.52285 602 283 602 L 103 602 C 97.47715 602 93 597.52285 93 592 L 93 552 C 93 546.47715 97.47715 542 103 542 Z" stroke="white" stroke-linecap="round" stroke-linejoin="round" stroke-width="4"/>
        <text transform="translate(103 563)" fill="white">
          <tspan font-family="American Typewriter" font-size="15" fill="white" x="3.7425" y="14">Cassiel Martínez Ugalde</tspan>
        </text>
      </g>
      <g id="Line_8">
        <line x1="193" y1="394" x2="193" y2="521.1" marker-end="url(#FilledArrow_Marker)" stroke="#3a6092" stroke-linecap="square" stroke-linejoin="miter" stroke-width="4"/>
      </g>
      <g id="Graphic_7">
        <title>decision</title>
        <path d="M 343 332 L 523 332 C 528.52285 332 533 336.47715 533 342 L 533 382 C 533 387.52285 528.52285 392 523 392 L 343 392 C 337.47715 392 333 387.52285 333 382 L 333 342 C 333 336.47715 337.47715 332 343 332 Z" fill="#9662d0"/>
        <path d="M 343 332 L 523 332 C 528.52285 332 533 336.47715 533 342 L 533 382 C 533 387.52285 528.52285 392 523 392 L 343 392 C 337.47715 392 333 387.52285 333 382 L 333 342 C 333 336.47715 337.47715 332 343 332 Z" stroke="white" stroke-linecap="round" stroke-linejoin="round" stroke-width="4"/>
        <text transform="translate(343 344)" fill="white">
          <tspan font-family="American Typewriter" font-size="15" fill="white" x="7.0875" y="14">Leonardo Galdino Melo </tspan>
          <tspan font-family="American Typewriter" font-size="15" fill="white" x="72.78" y="32">Cruz</tspan>
        </text>
      </g>
      <g id="Line_6">
        <path d="M 673 184 L 673 257 L 433 257 L 433 311.1" marker-end="url(#FilledArrow_Marker)" stroke="#3a6092" stroke-linecap="square" stroke-linejoin="miter" stroke-width="4"/>
      </g>
      <g id="Graphic_5">
        <title>decision</title>
        <path d="M 583 332 L 763 332 C 768.52285 332 773 336.47715 773 342 L 773 382 C 773 387.52285 768.52285 392 763 392 L 583 392 C 577.47715 392 573 387.52285 573 382 L 573 342 C 573 336.47715 577.47715 332 583 332 Z" fill="#00bfc0"/>
        <path d="M 583 332 L 763 332 C 768.52285 332 773 336.47715 773 342 L 773 382 C 773 387.52285 768.52285 392 763 392 L 583 392 C 577.47715 392 573 387.52285 573 382 L 573 342 C 573 336.47715 577.47715 332 583 332 Z" stroke="white" stroke-linecap="round" stroke-linejoin="round" stroke-width="4"/>
        <text transform="translate(583 344)" fill="white">
          <tspan font-family="American Typewriter" font-size="15" fill="white" x="1.4925" y="14">José Francisco Martínez </tspan>
          <tspan font-family="American Typewriter" font-size="15" fill="white" x="68.8425" y="32">Merlo</tspan>
        </text>
      </g>
      <g id="Line_4">
        <line x1="673" y1="184" x2="673" y2="311.1" marker-end="url(#FilledArrow_Marker)" stroke="#3a6092" stroke-linecap="square" stroke-linejoin="miter" stroke-width="4"/>
      </g>
      <g id="Graphic_3">
        <title>decision</title>
        <path d="M 823 332 L 1003 332 C 1008.5228 332 1013 336.47715 1013 342 L 1013 382 C 1013 387.52285 1008.5228 392 1003 392 L 823 392 C 817.4772 392 813 387.52285 813 382 L 813 342 C 813 336.47715 817.4772 332 823 332 Z" fill="#f26077"/>
        <path d="M 823 332 L 1003 332 C 1008.5228 332 1013 336.47715 1013 342 L 1013 382 C 1013 387.52285 1008.5228 392 1003 392 L 823 392 C 817.4772 392 813 387.52285 813 382 L 813 342 C 813 336.47715 817.4772 332 823 332 Z" stroke="white" stroke-linecap="round" stroke-linejoin="round" stroke-width="4"/>
        <text transform="translate(823 344)" fill="white">
          <tspan font-family="American Typewriter" font-size="15" fill="white" x="8.0175" y="14">José Antonio Martínez </tspan>
          <tspan font-family="American Typewriter" font-size="15" fill="white" x="56.4225" y="32">Castañón</tspan>
        </text>
      </g>
      <g id="Line_2">
        <path d="M 673 184 L 673 257 L 913 257 L 913 311.1" marker-end="url(#FilledArrow_Marker)" stroke="#3a6092" stroke-linecap="square" stroke-linejoin="miter" stroke-width="4"/>
      </g>
    </g>
  </g>
</svg>
