<?xml version="1.0" encoding="UTF-8" standalone="no"?>
<!DOCTYPE svg PUBLIC "-//W3C//DTD SVG 1.1//EN" "http://www.w3.org/Graphics/SVG/1.1/DTD/svg11.dtd">
<svg xmlns:xl="http://www.w3.org/1999/xlink" xmlns="http://www.w3.org/2000/svg" xmlns:dc="http://purl.org/dc/elements/1.1/" version="1.1" viewBox="111 107 684 274" width="684" height="274">
  <defs>
    <marker orient="auto" overflow="visible" markerUnits="strokeWidth" id="FilledArrow_Marker" stroke-linejoin="miter" stroke-miterlimit="10" viewBox="-1 -3 6 6" markerWidth="6" markerHeight="6" color="#3a6092">
      <g>
        <path d="M 3.2 0 L 0 -1.2 L 0 1.2 Z" fill="currentColor" stroke="currentColor" stroke-width="1"/>
      </g>
    </marker>
  </defs>
  <g id="Logistica" stroke-dasharray="none" stroke-opacity="1" fill-opacity="1" fill="none" stroke="none">
    <title>Logistica</title>
    <g id="Logistica_Capa_1">
      <title>Capa 1</title>
      <g id="Graphic_8">
        <title>decision</title>
        <path d="M 363 109 L 543 109 C 548.52285 109 553 113.47715 553 119 L 553 159 C 553 164.52285 548.52285 169 543 169 L 363 169 C 357.47715 169 353 164.52285 353 159 L 353 119 C 353 113.47715 357.47715 109 363 109 Z" fill="#f1776c"/>
        <path d="M 363 109 L 543 109 C 548.52285 109 553 113.47715 553 119 L 553 159 C 553 164.52285 548.52285 169 543 169 L 363 169 C 357.47715 169 353 164.52285 353 159 L 353 119 C 353 113.47715 357.47715 109 363 109 Z" stroke="white" stroke-linecap="round" stroke-linejoin="round" stroke-width="4"/>
        <text transform="translate(363 130)" fill="white">
          <tspan font-family="American Typewriter" font-size="15" fill="white" x="57.6375" y="14">Logistica</tspan>
        </text>
      </g>
      <g id="Graphic_7">
        <title>decision</title>
        <path d="M 123 319 L 303 319 C 308.52285 319 313 323.47715 313 329 L 313 369 C 313 374.52285 308.52285 379 303 379 L 123 379 C 117.47715 379 113 374.52285 113 369 L 113 329 C 113 323.47715 117.47715 319 123 319 Z" fill="#f26077"/>
        <path d="M 123 319 L 303 319 C 308.52285 319 313 323.47715 313 329 L 313 369 C 313 374.52285 308.52285 379 303 379 L 123 379 C 117.47715 379 113 374.52285 113 369 L 113 329 C 113 323.47715 117.47715 319 123 319 Z" stroke="white" stroke-linecap="round" stroke-linejoin="round" stroke-width="4"/>
        <text transform="translate(123 331)" fill="white">
          <tspan font-family="American Typewriter" font-size="15" fill="white" x="8.0175" y="14">José Antonio Martínez </tspan>
          <tspan font-family="American Typewriter" font-size="15" fill="white" x="56.4225" y="32">Castañón</tspan>
        </text>
      </g>
      <g id="Line_6">
        <path d="M 453 171 L 453 244 L 213 244 L 213 298.1" marker-end="url(#FilledArrow_Marker)" stroke="#3a6092" stroke-linecap="square" stroke-linejoin="miter" stroke-width="4"/>
      </g>
      <g id="Graphic_5">
        <title>decision</title>
        <path d="M 363 319 L 543 319 C 548.52285 319 553 323.47715 553 329 L 553 369 C 553 374.52285 548.52285 379 543 379 L 363 379 C 357.47715 379 353 374.52285 353 369 L 353 329 C 353 323.47715 357.47715 319 363 319 Z" fill="#00bfc0"/>
        <path d="M 363 319 L 543 319 C 548.52285 319 553 323.47715 553 329 L 553 369 C 553 374.52285 548.52285 379 543 379 L 363 379 C 357.47715 379 353 374.52285 353 369 L 353 329 C 353 323.47715 357.47715 319 363 319 Z" stroke="white" stroke-linecap="round" stroke-linejoin="round" stroke-width="4"/>
        <text transform="translate(363 331)" fill="white">
          <tspan font-family="American Typewriter" font-size="15" fill="white" x="1.4925" y="14">José Francisco Martínez </tspan>
          <tspan font-family="American Typewriter" font-size="15" fill="white" x="68.8425" y="32">Merlo</tspan>
        </text>
      </g>
      <g id="Line_4">
        <line x1="453" y1="171" x2="453" y2="298.1" marker-end="url(#FilledArrow_Marker)" stroke="#3a6092" stroke-linecap="square" stroke-linejoin="miter" stroke-width="4"/>
      </g>
      <g id="Graphic_3">
        <title>decision</title>
        <path d="M 603 319 L 783 319 C 788.52285 319 793 323.47715 793 329 L 793 369 C 793 374.52285 788.52285 379 783 379 L 603 379 C 597.47715 379 593 374.52285 593 369 L 593 329 C 593 323.47715 597.47715 319 603 319 Z" fill="#9662d0"/>
        <path d="M 603 319 L 783 319 C 788.52285 319 793 323.47715 793 329 L 793 369 C 793 374.52285 788.52285 379 783 379 L 603 379 C 597.47715 379 593 374.52285 593 369 L 593 329 C 593 323.47715 597.47715 319 603 319 Z" stroke="white" stroke-linecap="round" stroke-linejoin="round" stroke-width="4"/>
        <text transform="translate(603 331)" fill="white">
          <tspan font-family="American Typewriter" font-size="15" fill="white" x="7.0875" y="14">Leonardo Galdino Melo </tspan>
          <tspan font-family="American Typewriter" font-size="15" fill="white" x="72.78" y="32">Cruz</tspan>
        </text>
      </g>
      <g id="Line_2">
        <path d="M 453 171 L 453 244 L 693 244 L 693 298.1" marker-end="url(#FilledArrow_Marker)" stroke="#3a6092" stroke-linecap="square" stroke-linejoin="miter" stroke-width="4"/>
      </g>
    </g>
  </g>
</svg>
