<?xml version="1.0" encoding="UTF-8" standalone="no"?>
<!DOCTYPE svg PUBLIC "-//W3C//DTD SVG 1.1//EN" "http://www.w3.org/Graphics/SVG/1.1/DTD/svg11.dtd">
<svg xmlns:xl="http://www.w3.org/1999/xlink" xmlns="http://www.w3.org/2000/svg" xmlns:dc="http://purl.org/dc/elements/1.1/" version="1.1" viewBox="1212 12 684 274" width="684" height="274">
  <defs>
    <marker orient="auto" overflow="visible" markerUnits="strokeWidth" id="FilledArrow_Marker" stroke-linejoin="miter" stroke-miterlimit="10" viewBox="-1 -3 6 6" markerWidth="6" markerHeight="6" color="#3a6092">
      <g>
        <path d="M 3.2 0 L 0 -1.2 L 0 1.2 Z" fill="currentColor" stroke="currentColor" stroke-width="1"/>
      </g>
    </marker>
  </defs>
  <g id="Marketing" stroke-dasharray="none" stroke-opacity="1" fill-opacity="1" fill="none" stroke="none">
    <title>Marketing</title>
    <g id="Marketing_Capa_1">
      <title>Capa 1</title>
      <g id="Line_8">
        <path d="M 1554 76 L 1554 149 L 1314 149 L 1314 203.1" marker-end="url(#FilledArrow_Marker)" stroke="#3a6092" stroke-linecap="square" stroke-linejoin="miter" stroke-width="4"/>
      </g>
      <g id="Graphic_7">
        <title>decision</title>
        <path d="M 1464 14 L 1644 14 C 1649.5228 14 1654 18.477153 1654 24 L 1654 64 C 1654 69.52285 1649.5228 74 1644 74 L 1464 74 C 1458.4772 74 1454 69.52285 1454 64 L 1454 24 C 1454 18.477153 1458.4772 14 1464 14 Z" fill="#f1776c"/>
        <path d="M 1464 14 L 1644 14 C 1649.5228 14 1654 18.477153 1654 24 L 1654 64 C 1654 69.52285 1649.5228 74 1644 74 L 1464 74 C 1458.4772 74 1454 69.52285 1454 64 L 1454 24 C 1454 18.477153 1458.4772 14 1464 14 Z" stroke="white" stroke-linecap="round" stroke-linejoin="round" stroke-width="4"/>
        <text transform="translate(1464 35)" fill="white">
          <tspan font-family="American Typewriter" font-size="15" fill="white" x="52.305" y="14">Marketing</tspan>
        </text>
      </g>
      <g id="Graphic_6">
        <title>decision</title>
        <path d="M 1224 224 L 1404 224 C 1409.5228 224 1414 228.47715 1414 234 L 1414 274 C 1414 279.52285 1409.5228 284 1404 284 L 1224 284 C 1218.4772 284 1214 279.52285 1214 274 L 1214 234 C 1214 228.47715 1218.4772 224 1224 224 Z" fill="#9662d0"/>
        <path d="M 1224 224 L 1404 224 C 1409.5228 224 1414 228.47715 1414 234 L 1414 274 C 1414 279.52285 1409.5228 284 1404 284 L 1224 284 C 1218.4772 284 1214 279.52285 1214 274 L 1214 234 C 1214 228.47715 1218.4772 224 1224 224 Z" stroke="white" stroke-linecap="round" stroke-linejoin="round" stroke-width="4"/>
        <text transform="translate(1224 236)" fill="white">
          <tspan font-family="American Typewriter" font-size="15" fill="white" x="7.0875" y="14">Leonardo Galdino Melo </tspan>
          <tspan font-family="American Typewriter" font-size="15" fill="white" x="72.78" y="32">Cruz</tspan>
        </text>
      </g>
      <g id="Graphic_5">
        <title>decision</title>
        <path d="M 1464 224 L 1644 224 C 1649.5228 224 1654 228.47715 1654 234 L 1654 274 C 1654 279.52285 1649.5228 284 1644 284 L 1464 284 C 1458.4772 284 1454 279.52285 1454 274 L 1454 234 C 1454 228.47715 1458.4772 224 1464 224 Z" fill="#3a8eed"/>
        <path d="M 1464 224 L 1644 224 C 1649.5228 224 1654 228.47715 1654 234 L 1654 274 C 1654 279.52285 1649.5228 284 1644 284 L 1464 284 C 1458.4772 284 1454 279.52285 1454 274 L 1454 234 C 1454 228.47715 1458.4772 224 1464 224 Z" stroke="white" stroke-linecap="round" stroke-linejoin="round" stroke-width="4"/>
        <text transform="translate(1464 245)" fill="white">
          <tspan font-family="American Typewriter" font-size="15" fill="white" x="3.7425" y="14">Cassiel Martínez Ugalde</tspan>
        </text>
      </g>
      <g id="Line_4">
        <line x1="1554" y1="76" x2="1554" y2="203.1" marker-end="url(#FilledArrow_Marker)" stroke="#3a6092" stroke-linecap="square" stroke-linejoin="miter" stroke-width="4"/>
      </g>
      <g id="Graphic_3">
        <title>decision</title>
        <path d="M 1704 224 L 1884 224 C 1889.5228 224 1894 228.47715 1894 234 L 1894 274 C 1894 279.52285 1889.5228 284 1884 284 L 1704 284 C 1698.4772 284 1694 279.52285 1694 274 L 1694 234 C 1694 228.47715 1698.4772 224 1704 224 Z" fill="#f26077"/>
        <path d="M 1704 224 L 1884 224 C 1889.5228 224 1894 228.47715 1894 234 L 1894 274 C 1894 279.52285 1889.5228 284 1884 284 L 1704 284 C 1698.4772 284 1694 279.52285 1694 274 L 1694 234 C 1694 228.47715 1698.4772 224 1704 224 Z" stroke="white" stroke-linecap="round" stroke-linejoin="round" stroke-width="4"/>
        <text transform="translate(1704 236)" fill="white">
          <tspan font-family="American Typewriter" font-size="15" fill="white" x="8.0175" y="14">José Antonio Martínez </tspan>
          <tspan font-family="American Typewriter" font-size="15" fill="white" x="56.4225" y="32">Castañón</tspan>
        </text>
      </g>
      <g id="Line_2">
        <path d="M 1554 76 L 1554 149 L 1794 149 L 1794 203.1" marker-end="url(#FilledArrow_Marker)" stroke="#3a6092" stroke-linecap="square" stroke-linejoin="miter" stroke-width="4"/>
      </g>
    </g>
  </g>
</svg>
