<?xml version="1.0" encoding="UTF-8" standalone="no"?>
<!DOCTYPE svg PUBLIC "-//W3C//DTD SVG 1.1//EN" "http://www.w3.org/Graphics/SVG/1.1/DTD/svg11.dtd">
<svg xmlns:xl="http://www.w3.org/1999/xlink" xmlns="http://www.w3.org/2000/svg" xmlns:dc="http://purl.org/dc/elements/1.1/" version="1.1" viewBox="252 12 924 274" width="924" height="274">
  <defs>
    <marker orient="auto" overflow="visible" markerUnits="strokeWidth" id="FilledArrow_Marker" stroke-linejoin="miter" stroke-miterlimit="10" viewBox="-1 -3 6 6" markerWidth="6" markerHeight="6" color="#3a6092">
      <g>
        <path d="M 3.2 0 L 0 -1.2 L 0 1.2 Z" fill="currentColor" stroke="currentColor" stroke-width="1"/>
      </g>
    </marker>
    <marker orient="auto" overflow="visible" markerUnits="strokeWidth" id="FilledArrow_Marker_2" stroke-linejoin="miter" stroke-miterlimit="10" viewBox="-1 -3 6 6" markerWidth="6" markerHeight="6" color="#3a6092">
      <g>
        <path d="M 3.2 0 L 0 -1.2 L 0 1.2 Z" fill="currentColor" stroke="currentColor" stroke-width="1"/>
      </g>
    </marker>
  </defs>
  <g id="Zenik" stroke-dasharray="none" stroke-opacity="1" fill-opacity="1" fill="none" stroke="none">
    <title>Zenik</title>
    <g id="Zenik_Layer_1">
      <title>Layer 1</title>
      <g id="Line_1282">
        <path d="M 714 76 L 714 149 L 354 149 L 354 203.1" marker-end="url(#FilledArrow_Marker)" stroke="#3a6092" stroke-linecap="square" stroke-linejoin="miter" stroke-width="4"/>
      </g>
      <g id="Line_1259">
        <path d="M 714 76 L 714 149 L 834 149 L 834 203.1" marker-end="url(#FilledArrow_Marker_2)" stroke="#3a6092" stroke-linecap="square" stroke-linejoin="miter" stroke-width="4"/>
      </g>
      <g id="Line_1258">
        <path d="M 714 76 L 714 149 L 594 149 L 594 203.1" marker-end="url(#FilledArrow_Marker_2)" stroke="#3a6092" stroke-linecap="square" stroke-linejoin="miter" stroke-width="4"/>
      </g>
      <g id="Graphic_1283">
        <title>decision</title>
        <path d="M 264 224 L 444 224 C 449.52285 224 454 228.47715 454 234 L 454 274 C 454 279.52285 449.52285 284 444 284 L 264 284 C 258.47715 284 254 279.52285 254 274 L 254 234 C 254 228.47715 258.47715 224 264 224 Z" fill="#f1776c"/>
        <path d="M 264 224 L 444 224 C 449.52285 224 454 228.47715 454 234 L 454 274 C 454 279.52285 449.52285 284 444 284 L 264 284 C 258.47715 284 254 279.52285 254 274 L 254 234 C 254 228.47715 258.47715 224 264 224 Z" stroke="white" stroke-linecap="round" stroke-linejoin="round" stroke-width="4"/>
        <text transform="translate(264 245)" fill="white">
          <tspan font-family="American Typewriter" font-size="15" fill="white" x="52.305" y="14">Marketing</tspan>
        </text>
      </g>
      <g id="Graphic_1252">
        <title>decision</title>
        <path d="M 504 224 L 684 224 C 689.52285 224 694 228.47715 694 234 L 694 274 C 694 279.52285 689.52285 284 684 284 L 504 284 C 498.47715 284 494 279.52285 494 274 L 494 234 C 494 228.47715 498.47715 224 504 224 Z" fill="#f1776c"/>
        <path d="M 504 224 L 684 224 C 689.52285 224 694 228.47715 694 234 L 694 274 C 694 279.52285 689.52285 284 684 284 L 504 284 C 498.47715 284 494 279.52285 494 274 L 494 234 C 494 228.47715 498.47715 224 504 224 Z" stroke="white" stroke-linecap="round" stroke-linejoin="round" stroke-width="4"/>
        <text transform="translate(504 245)" fill="white">
          <tspan font-family="American Typewriter" font-size="15" fill="white" x="41.7225" y="14">Investigación</tspan>
        </text>
      </g>
      <g id="Graphic_1249">
        <title>decision</title>
        <path d="M 744 224 L 924 224 C 929.5228 224 934 228.47715 934 234 L 934 274 C 934 279.52285 929.5228 284 924 284 L 744 284 C 738.47715 284 734 279.52285 734 274 L 734 234 C 734 228.47715 738.47715 224 744 224 Z" fill="#f1776c"/>
        <path d="M 744 224 L 924 224 C 929.5228 224 934 228.47715 934 234 L 934 274 C 934 279.52285 929.5228 284 924 284 L 744 284 C 738.47715 284 734 279.52285 734 274 L 734 234 C 734 228.47715 738.47715 224 744 224 Z" stroke="white" stroke-linecap="round" stroke-linejoin="round" stroke-width="4"/>
        <text transform="translate(744 245)" fill="white">
          <tspan font-family="American Typewriter" font-size="15" fill="white" x="52.365" y="14">Desarrollo</tspan>
        </text>
      </g>
      <g id="Graphic_1245">
        <title>start</title>
        <path d="M 624 14 L 804 14 C 809.5228 14 814 18.477153 814 24 L 814 64 C 814 69.52285 809.5228 74 804 74 L 624 74 C 618.47715 74 614 69.52285 614 64 L 614 24 C 614 18.477153 618.47715 14 624 14 Z" fill="#4a79b6"/>
        <path d="M 624 14 L 804 14 C 809.5228 14 814 18.477153 814 24 L 814 64 C 814 69.52285 809.5228 74 804 74 L 624 74 C 618.47715 74 614 69.52285 614 64 L 614 24 C 614 18.477153 618.47715 14 624 14 Z" stroke="white" stroke-linecap="round" stroke-linejoin="round" stroke-width="4"/>
        <text transform="translate(624 35)" fill="white">
          <tspan font-family="American Typewriter" font-size="15" fill="white" x="65.8425" y="14">ZENIK</tspan>
        </text>
      </g>
      <g id="Graphic_1533">
        <title>decision</title>
        <path d="M 984 224 L 1164 224 C 1169.5228 224 1174 228.47715 1174 234 L 1174 274 C 1174 279.52285 1169.5228 284 1164 284 L 984 284 C 978.4772 284 974 279.52285 974 274 L 974 234 C 974 228.47715 978.4772 224 984 224 Z" fill="#f1776c"/>
        <path d="M 984 224 L 1164 224 C 1169.5228 224 1174 228.47715 1174 234 L 1174 274 C 1174 279.52285 1169.5228 284 1164 284 L 984 284 C 978.4772 284 974 279.52285 974 274 L 974 234 C 974 228.47715 978.4772 224 984 224 Z" stroke="white" stroke-linecap="round" stroke-linejoin="round" stroke-width="4"/>
        <text transform="translate(984 245)" fill="white">
          <tspan font-family="American Typewriter" font-size="15" fill="white" x="57.6375" y="14">Logistica</tspan>
        </text>
      </g>
      <g id="Line_1535">
        <path d="M 714 76 L 714 149 L 1074 149 L 1074 203.1" marker-end="url(#FilledArrow_Marker_2)" stroke="#3a6092" stroke-linecap="square" stroke-linejoin="miter" stroke-width="4"/>
      </g>
    </g>
  </g>
</svg>
